<!DOCTYPE svg PUBLIC "-//W3C//DTD SVG 20010904//EN" "http://www.w3.org/TR/2001/REC-SVG-20010904/DTD/svg10.dtd">
<svg version="1.0" xmlns="http://www.w3.org/2000/svg" width="600px" height="600px" viewBox="0 0 6000 6000" preserveAspectRatio="xMidYMid meet">
<g id="layer1" fill="#ffffff" stroke="none">
 <path d="M1527 4472 c-807 -807 -1467 -1472 -1467 -1477 0 -13 2922 -2935 2935 -2935 6 0 672 662 1480 1470 l1470 1470 -1470 1470 c-808 809 -1472 1470 -1475 1470 -3 0 -665 -660 -1473 -1468z m2123 643 l645 -645 -1295 0 -1295 0 645 645 c355 355 647 645 650 645 3 0 295 -290 650 -645z m285 -897 c-143 -72 -716 -357 -1272 -634 l-1013 -503 0 635 0 634 1273 -1 1272 0 -260 -131z m-2405 -1225 l0 -1298 -650 650 -650 650 647 647 c357 357 649 648 650 648 2 0 3 -584 3 -1297z m3587 -640 l-647 -648 0 1295 0 1295 647 -648 648 -647 -648 -647z m-767 642 c0 -701 -3 -1275 -7 -1275 -8 0 -2573 1274 -2570 1276 10 8 2563 1274 2569 1274 4 0 8 -574 8 -1275z m-2187 -967 c-277 -208 -505 -378 -508 -378 -3 0 -5 283 -5 630 l0 629 508 -252 508 -252 -503 -377z m1327 -33 l685 -344 -1149 0 c-632 -1 -1147 1 -1144 4 16 16 912 685 917 684 3 0 314 -155 691 -344z m155 -1115 l-650 -650 -642 642 c-354 354 -643 646 -643 650 0 5 582 8 1292 8 l1293 0 -650 -650z"/>
 <path d="M837 3184 c-4 -4 -7 -114 -7 -244 0 -201 2 -240 15 -250 24 -20 225 -8 266 16 54 32 74 68 74 134 0 68 -20 103 -78 135 l-36 21 64 91 c35 50 61 94 57 97 -3 3 -20 6 -39 6 -31 0 -37 -7 -95 -95 -63 -94 -63 -95 -105 -95 l-42 0 -3 93 -3 92 -30 3 c-17 2 -34 0 -38 -4z m232 -269 c65 -33 61 -123 -5 -151 -19 -8 -61 -14 -94 -14 l-60 0 0 90 0 90 65 0 c38 0 78 -6 94 -15z"/>
 <path d="M4996 3193 c-28 -7 -87 -46 -113 -74 -39 -43 -63 -109 -63 -179 0 -150 106 -259 253 -260 65 0 107 15 155 54 39 33 41 53 7 68 -21 10 -29 8 -48 -9 -49 -45 -110 -57 -179 -34 -94 31 -144 159 -103 259 32 74 87 113 165 114 50 0 81 -11 117 -45 19 -17 27 -19 48 -9 14 6 25 18 25 26 0 18 -55 65 -97 83 -31 12 -127 16 -167 6z"/>
 </g>

</svg>